<svg width="148" height="92" viewBox="0 0 148 92" fill="none" xmlns="http://www.w3.org/2000/svg">
<path d="M105.284 39.0711C102.569 34.0114 99.7927 28.7049 96.3373 22.2877C86.8967 35.1838 78.3816 46.599 70.175 58.3226C68.9409 60.0503 69.126 62.827 68.9409 65.11C68.4473 70.9102 64.9302 72.0825 59.4386 70.4165C52.4661 68.2569 44.9999 67.4548 37.6572 66.7143C36.4231 66.5909 34.2018 69.3676 33.6465 71.157C32.8443 73.6251 33.1528 76.5252 32.9677 79.2402C32.289 79.1785 31.672 79.1168 30.9932 79.055C31.4251 76.4635 31.8571 73.8719 32.3507 70.7868C30.4379 70.2931 28.4017 70.2931 27.0442 69.3059C25.4399 68.1952 23.342 66.159 23.4037 64.6781C23.4654 62.7036 25.1314 60.2972 26.7974 59.0014C34.0167 53.4481 41.4828 48.265 48.7022 42.7733C50.0596 41.7244 51.3554 39.8733 51.6022 38.2073C52.5278 31.605 41.6062 12.2918 34.572 9.08317C41.4211 9.08317 47.0362 9.08317 54.1321 9.08317C50.7384 9.6385 48.6404 9.94702 45.2468 10.5024C47.9617 17.9685 50.4916 24.8793 53.3299 32.7774C66.1026 27.8411 78.7518 23.9537 90.2904 17.9068C94.1777 15.8706 95.165 8.15762 98.3736 1C98.6821 5.07244 100.101 9.08317 98.9289 10.1321C94.3628 14.1429 97.2629 17.5983 98.9906 20.9303C106.21 34.9987 113.738 49.0054 121.019 63.0738C121.389 63.8143 120.957 65.0483 120.895 66.0356C120.093 66.4058 119.291 66.8377 118.489 67.208C114.787 60.0503 111.084 52.8927 107.382 45.7351C98.065 51.2884 94.3011 60.2355 96.9544 69.9846C99.5459 79.5487 109.357 86.6446 119.538 86.4595C129.781 86.2744 138.666 79.2402 141.381 69.0591C143.664 60.6057 141.196 52.7693 134.594 48.0181C128.855 43.884 121.327 42.1563 114.725 39.3796C123.055 34.7519 135.951 39.4413 142.492 49.499C150.205 61.4078 147.243 77.2039 135.766 85.5956C123.981 94.1724 106.889 92.1979 97.6331 81.153C87.5137 68.874 90.0436 54.1885 105.284 39.0711ZM92.5117 22.4111C91.8947 21.609 91.2776 20.8686 90.5989 20.0664C80.7263 25.3112 70.6686 30.3709 60.9812 35.9242C59.0684 37.0349 56.847 40.4903 57.279 42.2797C58.6981 48.3267 61.228 54.0034 63.9429 61.4695C74.3709 47.216 83.4413 34.8136 92.5117 22.4111ZM45.9255 48.7586C41.5445 52.7693 37.5955 56.3481 33.7082 59.9269C34.0167 60.9759 34.3252 62.0866 34.6337 63.1355C41.8531 63.3823 49.1341 63.7526 56.4151 63.6909C57.4024 63.6909 59.5003 61.2227 59.2535 60.3589C57.7726 54.6204 55.7981 49.0671 53.947 43.4521C52.9597 43.8223 51.9724 44.1925 51.0469 44.501C52.7746 49.931 54.5023 55.3609 56.2917 60.8525C55.4895 61.2227 54.6874 61.5929 53.8236 61.9632C51.2937 57.829 48.8873 53.7566 45.9255 48.7586Z" stroke="url(#paint0_radial_501_1180)" stroke-width="2"/>
<path d="M105.284 39.0711C102.569 34.0114 99.7927 28.7049 96.3373 22.2877C86.8967 35.1838 78.3816 46.599 70.175 58.3226C68.9409 60.0503 69.126 62.827 68.9409 65.11C68.4473 70.9102 64.9302 72.0825 59.4386 70.4165C52.4661 68.2569 44.9999 67.4548 37.6572 66.7143C36.4231 66.5909 34.2018 69.3676 33.6465 71.157C32.8443 73.6251 33.1528 76.5252 32.9677 79.2402C32.289 79.1785 31.672 79.1168 30.9932 79.055C31.4251 76.4635 31.8571 73.8719 32.3507 70.7868C30.4379 70.2931 28.4017 70.2931 27.0442 69.3059C25.4399 68.1952 23.342 66.159 23.4037 64.6781C23.4654 62.7036 25.1314 60.2972 26.7974 59.0014C34.0167 53.4481 41.4828 48.265 48.7022 42.7733C50.0596 41.7244 51.3554 39.8733 51.6022 38.2073C52.5278 31.605 41.6062 12.2918 34.572 9.08317C41.4211 9.08317 47.0362 9.08317 54.1321 9.08317C50.7384 9.6385 48.6404 9.94702 45.2468 10.5024C47.9617 17.9685 50.4916 24.8793 53.3299 32.7774C66.1026 27.8411 78.7518 23.9537 90.2904 17.9068C94.1777 15.8706 95.165 8.15762 98.3736 1C98.6821 5.07244 100.101 9.08317 98.9289 10.1321C94.3628 14.1429 97.2629 17.5983 98.9906 20.9303C106.21 34.9987 113.738 49.0054 121.019 63.0738C121.389 63.8143 120.957 65.0483 120.895 66.0356C120.093 66.4058 119.291 66.8377 118.489 67.208C114.787 60.0503 111.084 52.8927 107.382 45.7351C98.065 51.2884 94.3011 60.2355 96.9544 69.9846C99.5459 79.5487 109.357 86.6446 119.538 86.4595C129.781 86.2744 138.666 79.2402 141.381 69.0591C143.664 60.6057 141.196 52.7693 134.594 48.0181C128.855 43.884 121.327 42.1563 114.725 39.3796C123.055 34.7519 135.951 39.4413 142.492 49.499C150.205 61.4078 147.243 77.2039 135.766 85.5956C123.981 94.1724 106.889 92.1979 97.6331 81.153C87.5137 68.874 90.0436 54.1885 105.284 39.0711ZM92.5117 22.4111C91.8947 21.609 91.2776 20.8686 90.5989 20.0664C80.7263 25.3112 70.6686 30.3709 60.9812 35.9242C59.0684 37.0349 56.847 40.4903 57.279 42.2797C58.6981 48.3267 61.228 54.0034 63.9429 61.4695C74.3709 47.216 83.4413 34.8136 92.5117 22.4111ZM45.9255 48.7586C41.5445 52.7693 37.5955 56.3481 33.7082 59.9269C34.0167 60.9759 34.3252 62.0866 34.6337 63.1355C41.8531 63.3823 49.1341 63.7526 56.4151 63.6909C57.4024 63.6909 59.5003 61.2227 59.2535 60.3589C57.7726 54.6204 55.7981 49.0671 53.947 43.4521C52.9597 43.8223 51.9724 44.1925 51.0469 44.501C52.7746 49.931 54.5023 55.3609 56.2917 60.8525C55.4895 61.2227 54.6874 61.5929 53.8236 61.9632C51.2937 57.829 48.8873 53.7566 45.9255 48.7586Z" stroke="url(#paint1_radial_501_1180)" stroke-width="2"/>
<path d="M105.284 39.0711C102.569 34.0114 99.7927 28.7049 96.3373 22.2877C86.8967 35.1838 78.3816 46.599 70.175 58.3226C68.9409 60.0503 69.126 62.827 68.9409 65.11C68.4473 70.9102 64.9302 72.0825 59.4386 70.4165C52.4661 68.2569 44.9999 67.4548 37.6572 66.7143C36.4231 66.5909 34.2018 69.3676 33.6465 71.157C32.8443 73.6251 33.1528 76.5252 32.9677 79.2402C32.289 79.1785 31.672 79.1168 30.9932 79.055C31.4251 76.4635 31.8571 73.8719 32.3507 70.7868C30.4379 70.2931 28.4017 70.2931 27.0442 69.3059C25.4399 68.1952 23.342 66.159 23.4037 64.6781C23.4654 62.7036 25.1314 60.2972 26.7974 59.0014C34.0167 53.4481 41.4828 48.265 48.7022 42.7733C50.0596 41.7244 51.3554 39.8733 51.6022 38.2073C52.5278 31.605 41.6062 12.2918 34.572 9.08317C41.4211 9.08317 47.0362 9.08317 54.1321 9.08317C50.7384 9.6385 48.6404 9.94702 45.2468 10.5024C47.9617 17.9685 50.4916 24.8793 53.3299 32.7774C66.1026 27.8411 78.7518 23.9537 90.2904 17.9068C94.1777 15.8706 95.165 8.15762 98.3736 1C98.6821 5.07244 100.101 9.08317 98.9289 10.1321C94.3628 14.1429 97.2629 17.5983 98.9906 20.9303C106.21 34.9987 113.738 49.0054 121.019 63.0738C121.389 63.8143 120.957 65.0483 120.895 66.0356C120.093 66.4058 119.291 66.8377 118.489 67.208C114.787 60.0503 111.084 52.8927 107.382 45.7351C98.065 51.2884 94.3011 60.2355 96.9544 69.9846C99.5459 79.5487 109.357 86.6446 119.538 86.4595C129.781 86.2744 138.666 79.2402 141.381 69.0591C143.664 60.6057 141.196 52.7693 134.594 48.0181C128.855 43.884 121.327 42.1563 114.725 39.3796C123.055 34.7519 135.951 39.4413 142.492 49.499C150.205 61.4078 147.243 77.2039 135.766 85.5956C123.981 94.1724 106.889 92.1979 97.6331 81.153C87.5137 68.874 90.0436 54.1885 105.284 39.0711ZM92.5117 22.4111C91.8947 21.609 91.2776 20.8686 90.5989 20.0664C80.7263 25.3112 70.6686 30.3709 60.9812 35.9242C59.0684 37.0349 56.847 40.4903 57.279 42.2797C58.6981 48.3267 61.228 54.0034 63.9429 61.4695C74.3709 47.216 83.4413 34.8136 92.5117 22.4111ZM45.9255 48.7586C41.5445 52.7693 37.5955 56.3481 33.7082 59.9269C34.0167 60.9759 34.3252 62.0866 34.6337 63.1355C41.8531 63.3823 49.1341 63.7526 56.4151 63.6909C57.4024 63.6909 59.5003 61.2227 59.2535 60.3589C57.7726 54.6204 55.7981 49.0671 53.947 43.4521C52.9597 43.8223 51.9724 44.1925 51.0469 44.501C52.7746 49.931 54.5023 55.3609 56.2917 60.8525C55.4895 61.2227 54.6874 61.5929 53.8236 61.9632C51.2937 57.829 48.8873 53.7566 45.9255 48.7586Z" stroke="url(#paint2_radial_501_1180)" stroke-width="2"/>
<path d="M105.284 39.0711C102.569 34.0114 99.7927 28.7049 96.3373 22.2877C86.8967 35.1838 78.3816 46.599 70.175 58.3226C68.9409 60.0503 69.126 62.827 68.9409 65.11C68.4473 70.9102 64.9302 72.0825 59.4386 70.4165C52.4661 68.2569 44.9999 67.4548 37.6572 66.7143C36.4231 66.5909 34.2018 69.3676 33.6465 71.157C32.8443 73.6251 33.1528 76.5252 32.9677 79.2402C32.289 79.1785 31.672 79.1168 30.9932 79.055C31.4251 76.4635 31.8571 73.8719 32.3507 70.7868C30.4379 70.2931 28.4017 70.2931 27.0442 69.3059C25.4399 68.1952 23.342 66.159 23.4037 64.6781C23.4654 62.7036 25.1314 60.2972 26.7974 59.0014C34.0167 53.4481 41.4828 48.265 48.7022 42.7733C50.0596 41.7244 51.3554 39.8733 51.6022 38.2073C52.5278 31.605 41.6062 12.2918 34.572 9.08317C41.4211 9.08317 47.0362 9.08317 54.1321 9.08317C50.7384 9.6385 48.6404 9.94702 45.2468 10.5024C47.9617 17.9685 50.4916 24.8793 53.3299 32.7774C66.1026 27.8411 78.7518 23.9537 90.2904 17.9068C94.1777 15.8706 95.165 8.15762 98.3736 1C98.6821 5.07244 100.101 9.08317 98.9289 10.1321C94.3628 14.1429 97.2629 17.5983 98.9906 20.9303C106.21 34.9987 113.738 49.0054 121.019 63.0738C121.389 63.8143 120.957 65.0483 120.895 66.0356C120.093 66.4058 119.291 66.8377 118.489 67.208C114.787 60.0503 111.084 52.8927 107.382 45.7351C98.065 51.2884 94.3011 60.2355 96.9544 69.9846C99.5459 79.5487 109.357 86.6446 119.538 86.4595C129.781 86.2744 138.666 79.2402 141.381 69.0591C143.664 60.6057 141.196 52.7693 134.594 48.0181C128.855 43.884 121.327 42.1563 114.725 39.3796C123.055 34.7519 135.951 39.4413 142.492 49.499C150.205 61.4078 147.243 77.2039 135.766 85.5956C123.981 94.1724 106.889 92.1979 97.6331 81.153C87.5137 68.874 90.0436 54.1885 105.284 39.0711ZM92.5117 22.4111C91.8947 21.609 91.2776 20.8686 90.5989 20.0664C80.7263 25.3112 70.6686 30.3709 60.9812 35.9242C59.0684 37.0349 56.847 40.4903 57.279 42.2797C58.6981 48.3267 61.228 54.0034 63.9429 61.4695C74.3709 47.216 83.4413 34.8136 92.5117 22.4111ZM45.9255 48.7586C41.5445 52.7693 37.5955 56.3481 33.7082 59.9269C34.0167 60.9759 34.3252 62.0866 34.6337 63.1355C41.8531 63.3823 49.1341 63.7526 56.4151 63.6909C57.4024 63.6909 59.5003 61.2227 59.2535 60.3589C57.7726 54.6204 55.7981 49.0671 53.947 43.4521C52.9597 43.8223 51.9724 44.1925 51.0469 44.501C52.7746 49.931 54.5023 55.3609 56.2917 60.8525C55.4895 61.2227 54.6874 61.5929 53.8236 61.9632C51.2937 57.829 48.8873 53.7566 45.9255 48.7586Z" stroke="url(#paint3_radial_501_1180)" stroke-width="2"/>
<path d="M52.4032 72.3911C48.2691 88.6192 32.041 95.0363 17.2938 88.4341C2.97861 82.0169 -2.88323 65.6037 4.27439 51.7204C11.2469 38.1456 28.5239 33.0859 43.5796 42.3415C38.8284 42.3415 36.2369 42.65 33.707 42.2798C21.2429 40.4287 11.0618 45.982 7.23616 56.9652C3.71906 67.0229 7.97661 77.9444 17.479 83.3127C27.7218 89.1128 39.0752 86.7681 47.2818 77.3274C48.8244 75.538 50.6755 74.0571 52.4032 72.3911Z" stroke="#C5CEE0" stroke-width="2"/>
<defs>
<radialGradient id="paint0_radial_501_1180" cx="0" cy="0" r="1" gradientUnits="userSpaceOnUse" gradientTransform="translate(63 66) rotate(41.4237) scale(34.0073 33.771)">
<stop offset="0.333333" stop-color="#0046C0"/>
<stop offset="0.333433" stop-color="#C5CEE0"/>
</radialGradient>
<radialGradient id="paint1_radial_501_1180" cx="0" cy="0" r="1" gradientUnits="userSpaceOnUse" gradientTransform="translate(31.1153 64.8632) rotate(43.2902) scale(29.2458 26.9307)">
<stop offset="0.301983" stop-color="#0046C0"/>
<stop offset="0.302083" stop-opacity="0"/>
</radialGradient>
<radialGradient id="paint2_radial_501_1180" cx="0" cy="0" r="1" gradientUnits="userSpaceOnUse" gradientTransform="translate(49.9349 26.607) rotate(58.9886) scale(30.2113 26.111)">
<stop offset="0.301983" stop-color="#0046C0"/>
<stop offset="0.302083" stop-opacity="0"/>
</radialGradient>
<radialGradient id="paint3_radial_501_1180" cx="0" cy="0" r="1" gradientUnits="userSpaceOnUse" gradientTransform="translate(94.9785 21.0537) rotate(118.135) scale(32.8249 34.3113)">
<stop offset="0.301983" stop-color="#0046C0"/>
<stop offset="0.302083" stop-opacity="0"/>
</radialGradient>
</defs>
</svg>
