<svg width="56" height="56" viewBox="0 0 56 56" fill="none" xmlns="http://www.w3.org/2000/svg">
<path d="M48.9839 30.0762C44.0568 24.0382 27.8117 27.1973 15.1536 31.2405C14.9931 31.2961 14.8283 31.1869 14.8326 31.0329C14.8519 30.3928 14.8626 29.7486 14.8626 29.096C14.8626 25.5514 14.5715 22.5015 14.0535 19.4985C14.0343 19.3915 14.1049 19.2909 14.2205 19.261C24.6974 15.4383 45.8012 14.2569 49.4121 29.9028C49.472 30.1362 49.1295 30.2708 48.9797 30.0783M38.3763 47.6292C38.0317 47.8858 37.5781 47.4642 37.8735 47.1625C42.9739 41.9487 47.1625 33.6784 10.2137 50.5015C9.98685 50.6042 9.7621 50.3687 9.9098 50.1825C11.9453 47.2738 13.7624 42.5822 14.5843 35.9343C14.5929 35.8528 14.6464 35.7824 14.7277 35.7502C37.8819 26.446 64.0327 26.7906 38.3742 47.6313M7.46982 6.02506C7.2579 5.91806 7.34781 5.62483 7.58753 5.62697C13.9957 5.64622 33.2908 5.16679 43.2371 17.8419C43.372 18.0581 43.0617 18.2807 42.8647 18.1095C39.8638 15.4961 31.7392 11.072 13.0154 14.946C12.8849 14.9781 12.75 14.9054 12.7179 14.7855C11.2283 10.019 9.33191 7.44413 7.46982 6.02506ZM48.6201 0H6.54731C2.93013 0 0 2.97507 0 6.64578V49.3542C0 53.025 2.93013 56 6.54731 56H48.6201C52.2352 56 55.1675 53.025 55.1675 49.3542V6.64578C55.1675 2.97507 52.2352 0 48.6201 0Z" fill="#00A1FC"/>
</svg>
