<svg width="203" height="36" viewBox="0 0 203 36" fill="none" xmlns="http://www.w3.org/2000/svg">
<path d="M30.6065 19.3347C27.613 15.4532 17.7431 17.484 10.0525 20.0832C9.95496 20.1189 9.85483 20.0487 9.85744 19.9497C9.86913 19.5382 9.87564 19.1241 9.87564 18.7045C9.87564 16.4259 9.69879 14.4652 9.38409 12.5348C9.37239 12.466 9.4153 12.4013 9.48552 12.382C15.8509 9.92463 28.6728 9.16512 30.8666 19.2233C30.9031 19.3733 30.6949 19.4598 30.6039 19.3361M24.1617 30.6188C23.9523 30.7838 23.6767 30.5127 23.8562 30.3187C26.9551 26.967 29.4999 21.6504 7.05118 32.4652C6.91334 32.5312 6.77679 32.3799 6.86653 32.2602C8.1032 30.3903 9.20723 27.3743 9.70659 23.1006C9.71179 23.0483 9.7443 23.0029 9.79371 22.9822C23.8613 17.001 39.7496 17.2226 24.1605 30.6201M5.38408 3.87326C5.25533 3.80447 5.30996 3.61596 5.4556 3.61734C9.34897 3.62972 21.072 3.32151 27.115 11.4698C27.1969 11.6088 27.0084 11.7519 26.8887 11.6418C25.0655 9.96178 20.1292 7.11772 8.7534 9.60816C8.67407 9.6288 8.59215 9.58201 8.57264 9.50497C7.66757 6.44076 6.51542 4.78551 5.38408 3.87326ZM30.3855 0H4.8236C2.62594 0 0.845703 1.91255 0.845703 4.27229V31.7277C0.845703 34.0875 2.62594 36 4.8236 36H30.3855C32.5818 36 34.3634 34.0875 34.3634 31.7277V4.27229C34.3634 1.91255 32.5818 0 30.3855 0Z" fill="#00A1FC"/>
<path d="M40.0524 6.89209H48.2749C52.5467 6.89209 55.0928 9.67836 55.0928 13.6108C55.0928 17.5432 52.5467 20.3295 48.2749 20.3295H43.9445V28.5645H40.0524V6.89209ZM48.0992 16.8924C50.3815 16.8924 51.3177 15.3444 51.3177 13.6108C51.3177 11.8771 50.3815 10.3292 48.0992 10.3292H43.9445V16.8924H48.0992ZM62.8756 12.7123C67.353 12.7123 70.5713 16.1178 70.5713 20.7615C70.5713 25.4053 67.353 28.8108 62.8756 28.8108C58.3984 28.8108 55.1513 25.4053 55.1513 20.7615C55.1513 16.1178 58.3698 12.7123 62.8756 12.7123ZM62.8756 25.5291C65.3048 25.5291 66.9433 23.578 66.9433 20.7615C66.9433 17.9449 65.3048 15.9939 62.8756 15.9939C60.4465 15.9939 58.7795 17.9449 58.7795 20.7615C58.7795 23.578 60.4179 25.5291 62.8756 25.5291ZM72.2099 18.5325C72.2099 14.9716 74.1123 12.96 77.4765 12.96H80.7834V16.1494H78.0331C76.5987 16.1494 75.8094 17.0163 75.8094 18.5338V28.5645H72.2099V18.5325ZM82.5975 8.25426H86.1969V12.96H90.2932V16.1494H86.1969V22.9602C86.1969 24.5398 86.9875 25.3447 88.3335 25.3447H90.2945V28.5645H87.9239C84.7054 28.5645 82.5988 26.5831 82.5988 23.1157L82.5975 8.25426ZM99.0995 12.7123C103.577 12.7123 106.795 16.1178 106.795 20.7615C106.795 25.4053 103.577 28.8108 99.0995 28.8108C94.6221 28.8108 91.3752 25.4053 91.3752 20.7615C91.3752 16.1178 94.5936 12.7123 99.0995 12.7123ZM99.0995 25.5291C101.529 25.5291 103.167 23.578 103.167 20.7615C103.167 17.9449 101.529 15.9939 99.0995 15.9939C96.6703 15.9939 95.0032 17.9449 95.0032 20.7615C95.0032 23.578 96.6417 25.5291 99.0995 25.5291Z" fill="#00A1FC"/>
<path d="M110.486 21.2886H114.231C114.407 23.7034 116.017 25.2513 118.562 25.2513C120.844 25.2513 122.454 24.3225 122.454 22.4031C122.454 17.7594 111.101 20.979 111.101 12.7441C111.101 9.18313 114.086 6.64453 118.446 6.64453C122.806 6.64453 125.732 9.27669 125.908 13.3316H122.221C122.045 11.4424 120.699 10.1738 118.446 10.1738C116.192 10.1738 114.993 11.2264 114.993 12.7441C114.993 17.4814 126.346 13.8902 126.346 22.3411C126.346 26.3658 123.127 28.8123 118.563 28.8123C113.999 28.8123 110.72 25.9021 110.486 21.2886Z" fill="black"/>
<path d="M134.802 12.7124C139.747 12.7124 141.971 16.521 141.971 20.236C141.971 20.763 141.941 21.2266 141.912 21.5362H131.028C131.291 24.0447 132.814 25.6545 135.096 25.6545C136.94 25.6545 138.139 24.8496 138.52 23.3635H142.031C141.475 26.6767 138.724 28.8123 135.096 28.8123C130.267 28.8123 127.575 24.7876 127.575 20.701C127.575 16.6146 129.975 12.7138 134.803 12.7138L134.802 12.7124ZM138.371 19.0279C138.226 17.0466 136.937 15.5605 134.802 15.5605C132.782 15.5605 131.495 16.6752 131.115 19.0279H138.371Z" fill="black"/>
<path d="M143.43 20.2044C143.43 15.8385 146.034 12.7124 150.393 12.7124C152.238 12.7124 153.877 13.5173 154.696 14.8176V12.9601H158.295V28.3155C158.295 32.3098 155.34 34.8787 150.892 34.8787C146.444 34.8787 143.782 32.464 143.782 28.7793H147.351C147.409 30.5748 148.755 31.6893 150.892 31.6893C153.173 31.6893 154.726 30.3271 154.726 28.3141V25.5279C153.906 26.9217 152.296 27.7266 150.453 27.7266C146.065 27.7266 143.431 24.5688 143.431 20.203L143.43 20.2044ZM150.951 24.4767C153.321 24.4767 154.96 22.7113 154.96 20.2044C154.96 17.6974 153.321 15.9624 150.951 15.9624C148.58 15.9624 147 17.6961 147 20.2044C147 22.7127 148.61 24.4767 150.951 24.4767Z" fill="black"/>
<path d="M174.563 28.5631H170.963V26.1482C170.144 27.8518 168.475 28.8107 166.369 28.8107C163.033 28.8107 160.868 26.2721 160.868 22.619V12.96H164.468V21.8141C164.468 23.9509 165.697 25.4369 167.541 25.4369C169.56 25.4369 170.965 23.7652 170.965 21.4742V12.96H174.564L174.563 28.5631Z" fill="black"/>
<path d="M180.948 21.1949V28.5631H177.348V12.96H180.948V15.7159C181.678 13.7346 182.82 12.96 184.723 12.96H186.449V16.1494H184.137C181.855 16.1494 180.948 18.223 180.948 21.1949Z" fill="black"/>
<path d="M186.735 20.7616C186.735 16.1178 189.953 12.7124 194.459 12.7124C198.965 12.7124 202.154 16.1178 202.154 20.7616C202.154 25.4055 198.936 28.8109 194.459 28.8109C189.981 28.8109 186.735 25.4055 186.735 20.7616ZM194.459 25.5292C196.888 25.5292 198.527 23.5782 198.527 20.7616C198.527 17.9451 196.888 15.994 194.459 15.994C192.029 15.994 190.362 17.9451 190.362 20.7616C190.362 23.5782 192.001 25.5292 194.459 25.5292Z" fill="black"/>
</svg>
