<svg width="152" height="92" viewBox="0 0 152 92" fill="none" xmlns="http://www.w3.org/2000/svg">
<path d="M108.694 38.9855C105.985 33.9372 103.214 28.6426 99.7666 22.2399C90.3472 35.1069 81.8512 46.4964 73.6631 58.1938C72.4318 59.9176 72.6165 62.688 72.4318 64.9659C71.9393 70.753 68.4301 71.9227 62.9508 70.2605C55.994 68.1057 48.5446 67.3054 41.2184 66.5666C39.9871 66.4435 37.7708 69.2139 37.2167 70.9993C36.4164 73.4619 36.7242 76.3554 36.5395 79.0643C35.8623 79.0027 35.2466 78.9411 34.5694 78.8796C35.0004 76.2938 35.4313 73.7081 35.9238 70.6299C34.0153 70.1374 31.9837 70.1374 30.6293 69.1523C29.0286 68.0442 26.9354 66.0125 26.9969 64.535C27.0585 62.5649 28.7207 60.1638 30.383 58.871C37.5861 53.3301 45.0354 48.1587 52.2385 42.6794C53.593 41.6328 54.8858 39.7859 55.1321 38.1236C56.0556 31.5362 45.1586 12.2664 38.1402 9.065C44.9739 9.065 50.5763 9.065 57.6562 9.065C54.2702 9.61908 52.177 9.92691 48.7909 10.481C51.4998 17.9303 54.0239 24.8256 56.8559 32.7059C69.5998 27.7807 82.2206 23.9021 93.7333 17.8688C97.6119 15.8371 98.5969 8.14153 101.798 1C102.106 5.06328 103.522 9.065 102.352 10.1116C97.7965 14.1133 100.69 17.561 102.414 20.8855C109.617 34.9222 117.128 48.8975 124.393 62.9343C124.762 63.673 124.331 64.9043 124.269 65.8894C123.469 66.2588 122.669 66.6897 121.868 67.0591C118.175 59.9176 114.481 52.7761 110.787 45.6345C101.49 51.1754 97.735 60.1023 100.382 69.8295C102.968 79.3721 112.757 86.4521 122.915 86.2674C133.135 86.0827 142 79.0643 144.709 68.9061C146.987 60.4717 144.524 52.6529 137.937 47.9124C132.211 43.7876 124.7 42.0638 118.113 39.2934C126.424 34.676 139.291 39.3549 145.817 49.39C153.513 61.272 150.558 77.0326 139.107 85.4055C127.348 93.963 110.294 91.9929 101.059 80.9728C90.9628 68.7214 93.487 54.0689 108.694 38.9855ZM95.9496 22.363C95.334 21.5627 94.7183 20.8239 94.0411 20.0235C84.1907 25.2566 74.1556 30.3049 64.4899 35.8457C62.5814 36.9539 60.3651 40.4015 60.7961 42.1869C62.212 48.2203 64.7362 53.8842 67.4451 61.3336C77.8495 47.1121 86.8996 34.7376 95.9496 22.363ZM49.4681 48.6512C45.097 52.6529 41.1569 56.2237 37.2783 59.7945C37.5861 60.8411 37.8939 61.9492 38.2017 62.9958C45.4048 63.2421 52.6695 63.6115 59.9341 63.5499C60.9192 63.5499 63.0124 61.0873 62.7661 60.2254C61.2886 54.4999 59.3185 48.959 57.4715 43.3566C56.4865 43.726 55.5015 44.0954 54.578 44.4032C56.3018 49.821 58.0256 55.2387 59.811 60.7179C59.0107 61.0873 58.2103 61.4567 57.3484 61.8261C54.8243 57.7013 52.4232 53.638 49.4681 48.6512Z" stroke="#0046C0" stroke-width="2"/>
<path d="M52.9722 72.433C48.8474 88.6245 32.6558 95.0273 17.9418 88.4398C3.65874 82.0371 -2.18992 65.6608 4.95161 51.8087C11.9084 38.2645 29.1466 33.2161 44.1684 42.4509C39.4279 42.4509 36.8422 42.7587 34.3181 42.3893C21.8819 40.5424 11.7237 46.0832 7.90672 57.0418C4.39752 67.0768 8.6455 77.9738 18.1265 83.33C28.3463 89.1171 39.6742 86.7776 47.8623 77.3582C49.4014 75.5728 51.2484 74.0952 52.9722 72.433Z" stroke="#0046C0" stroke-width="2"/>
</svg>
