<svg width="152" height="92" viewBox="0 0 152 92" fill="none" xmlns="http://www.w3.org/2000/svg">
<path d="M43.3065 38.9855C46.0153 33.9372 48.7857 28.6426 52.2334 22.2399C61.6528 35.1069 70.1488 46.4964 78.3369 58.1938C79.5682 59.9176 79.3835 62.688 79.5682 64.9659C80.0607 70.753 83.5699 71.9227 89.0492 70.2605C96.006 68.1057 103.455 67.3054 110.782 66.5666C112.013 66.4435 114.229 69.2139 114.783 70.9993C115.584 73.4619 115.276 76.3554 115.461 79.0643C116.138 79.0027 116.753 78.9411 117.431 78.8796C117 76.2938 116.569 73.7081 116.076 70.6299C117.985 70.1374 120.016 70.1374 121.371 69.1523C122.971 68.0442 125.065 66.0125 125.003 64.535C124.942 62.5649 123.279 60.1638 121.617 58.871C114.414 53.3301 106.965 48.1587 99.7615 42.6794C98.407 41.6328 97.1142 39.7859 96.8679 38.1236C95.9444 31.5362 106.841 12.2664 113.86 9.065C107.026 9.065 101.424 9.065 94.3438 9.065C97.7298 9.61908 99.823 9.92691 103.209 10.481C100.5 17.9303 97.9761 24.8256 95.1441 32.7059C82.4002 27.7807 69.7794 23.9021 58.2667 17.8688C54.3881 15.8371 53.4031 8.14153 50.2017 1C49.8939 5.06328 48.4779 9.065 49.6477 10.1116C54.2035 14.1133 51.3099 17.561 49.5861 20.8855C42.383 34.9222 34.8721 48.8975 27.6074 62.9343C27.238 63.673 27.669 64.9043 27.7305 65.8894C28.5309 66.2588 29.3312 66.6897 30.1316 67.0591C33.8255 59.9176 37.5194 52.7761 41.2133 45.6345C50.5096 51.1754 54.265 60.1023 51.6177 69.8295C49.032 79.3721 39.2432 86.4521 29.085 86.2674C18.8652 86.0827 9.99987 79.0643 7.29101 68.9061C5.01311 60.4717 7.47571 52.6529 14.0631 47.9124C19.7887 43.7876 27.2996 42.0638 33.887 39.2934C25.5758 34.676 12.7087 39.3549 6.18284 49.39C-1.51277 61.272 1.44235 77.0326 12.8934 85.4055C24.6523 93.963 41.7058 91.9929 50.9405 80.9728C61.0372 68.7214 58.513 54.0689 43.3065 38.9855ZM56.0504 22.363C56.666 21.5627 57.2817 20.8239 57.9589 20.0235C67.8093 25.2566 77.8444 30.3049 87.5101 35.8457C89.4186 36.9539 91.6349 40.4015 91.2039 42.1869C89.788 48.2203 87.2638 53.8842 84.5549 61.3336C74.1505 47.1121 65.1004 34.7376 56.0504 22.363ZM102.532 48.6512C106.903 52.6529 110.843 56.2237 114.722 59.7945C114.414 60.8411 114.106 61.9492 113.798 62.9958C106.595 63.2421 99.3305 63.6115 92.0659 63.5499C91.0808 63.5499 88.9876 61.0873 89.2339 60.2254C90.7114 54.4999 92.6815 48.959 94.5285 43.3566C95.5135 43.726 96.4985 44.0954 97.422 44.4032C95.6982 49.821 93.9744 55.2387 92.189 60.7179C92.9893 61.0873 93.7897 61.4567 94.6516 61.8261C97.1757 57.7013 99.5768 53.638 102.532 48.6512Z" stroke="#0046C0" stroke-width="2"/>
<path d="M99.0278 72.433C103.153 88.6245 119.344 95.0273 134.058 88.4398C148.341 82.0371 154.19 65.6608 147.048 51.8087C140.092 38.2645 122.853 33.2161 107.832 42.4509C112.572 42.4509 115.158 42.7587 117.682 42.3893C130.118 40.5424 140.276 46.0832 144.093 57.0418C147.602 67.0768 143.354 77.9738 133.874 83.33C123.654 89.1171 112.326 86.7776 104.138 77.3582C102.599 75.5728 100.752 74.0952 99.0278 72.433Z" stroke="#0046C0" stroke-width="2"/>
</svg>
