<svg width="49" height="49" viewBox="0 0 49 49" fill="none" xmlns="http://www.w3.org/2000/svg">
<g clip-path="url(#clip0_719_1114)">
<path fill-rule="evenodd" clip-rule="evenodd" d="M26.55 11.2447H15.1542V10.2943C15.1542 9.41947 14.4451 8.71029 13.5702 8.71029H9.76863C8.89381 8.71029 8.18463 9.41947 8.18463 10.2943V11.2447H4.06623C2.84149 11.2447 1.84863 12.2375 1.84863 13.4623V41.9743C1.84863 43.199 2.84149 44.1919 4.06623 44.1919H45.2502C46.475 44.1919 47.4678 43.199 47.4678 41.9743V13.4623C47.4678 12.2375 46.475 11.2447 45.2502 11.2447H44.2998V7.12629C44.2998 5.90154 43.307 4.90869 42.0822 4.90869H29.9433C28.9387 4.90869 28.0595 5.58414 27.8006 6.5549L26.55 11.2447Z" stroke="#0046C0" stroke-width="3"/>
<path d="M18.4563 20C16.0339 21.7361 14.4615 24.535 14.4615 27.6923C14.4615 31.2555 16.4641 34.3623 19.4312 36H8.15385C6.41202 36 5 34.6224 5 32.9231V23.0769C5 21.3776 6.41202 20 8.15385 20H18.4563ZM30.0207 20H46V36H29.0458C32.0128 34.3623 34.0154 31.2555 34.0154 27.6923C34.0154 24.535 32.4431 21.7361 30.0207 20Z" fill="#00A1FC"/>
<path d="M24.658 36.5887C29.557 36.5887 33.5284 32.6173 33.5284 27.7183C33.5284 22.8193 29.557 18.8479 24.658 18.8479C19.759 18.8479 15.7876 22.8193 15.7876 27.7183C15.7876 32.6173 19.759 36.5887 24.658 36.5887Z" stroke="#0046C0" stroke-width="3"/>
<path d="M20.8564 26.7679C19.9816 26.7679 19.2724 26.0587 19.2724 25.1839C19.2724 24.309 19.9816 23.5999 20.8564 23.5999C21.7312 23.5999 22.4404 24.309 22.4404 25.1839C22.4404 26.0587 21.7312 26.7679 20.8564 26.7679Z" fill="#0046C0"/>
<path d="M38.9141 8.39355H33.2117C32.8618 8.39355 32.5781 8.67723 32.5781 9.02715V12.8288C32.5781 13.1787 32.8618 13.4624 33.2117 13.4624H38.9141C39.2641 13.4624 39.5477 13.1787 39.5477 12.8288V9.02715C39.5477 8.67723 39.2641 8.39355 38.9141 8.39355Z" fill="#00A1FC"/>
</g>
<defs>
<clipPath id="clip0_719_1114">
<rect width="48" height="48" fill="white" transform="translate(0.5 0.5)"/>
</clipPath>
</defs>
</svg>
